# xmcd
#
# Track frame offsets:
#	150
#	20699
#	39206
#	57956
#	76326
#	85275
#	99600
#
# Disc length: 1565 seconds
#
# Revision: 0
# Processed by: cddbd v1.5.2PL0 Copyright (c) Steve Scherf et al.
# Submitted via: audiograbber 1.83.01
#
DISCID=4c061b07
DTITLE=Surfer Blood - Rough Trade Bonus CD
DYEAR=2010
DGENRE=Rock
TTITLE0=Swim (Demo)
TTITLE1=Twin Peaks (Allen Blickle Remix)
TTITLE2=Take It Easy (Drop the Lime Remix)
TTITLE3=Twin Peaks (Golden Ages Remix)
TTITLE4=Audience Participation
TTITLE5=Swim (Live)
TTITLE6=Catholic Pagans (Live)
EXTD=
EXTT0=
EXTT1=
EXTT2=
EXTT3=
EXTT4=
EXTT5=
EXTT6=
PLAYORDER=
